# xmcd
#
# Track frame offsets:
#	150
#	11776
#	24237
#	37737
#	53242
#	67395
#	83185
#	98550
#	112906
#	127693
#
# Disc length: 1947 seconds
#
# Revision: 1
# Processed by: cddbd v1.5.2PL0 Copyright (c) Steve Scherf et al.
# Submitted via: EasyCDDAExtractor 10.5.1.1
#
DISCID=7107990a
DTITLE=Conway Twitty - Don't Call Him A Cowboy
DYEAR=2007
DGENRE=Country
TTITLE0=Don't Call Him A Cowboy
TTITLE1=Sombody Lied
TTITLE2=Between Blue Eyes And Jeans
TTITLE3=The Note
TTITLE4=Whichever One Comes First
TTITLE5=Everyone Has Someone They Can't Forget
TTITLE6=Those Eyes
TTITLE7=Except For You
TTITLE8=Green Eyes (Cryin' Those Blue Tears)
TTITLE9=Take It Like A Man
EXTD=
EXTT0=
EXTT1=
EXTT2=
EXTT3=
EXTT4=
EXTT5=
EXTT6=
EXTT7=
EXTT8=
EXTT9=
PLAYORDER=
